<svg version="1.2" xmlns="http://www.w3.org/2000/svg" viewBox="0 0 636 412" width="636" height="412"><style>@keyframes rotate{to{transform:rotate(360deg)}}@-webkit-keyframes animate__fadeIn{0%,to{opacity:0}50%{opacity:1}}@keyframes animate__fadeIn{0%,to{opacity:0}50%{opacity:1}}.s1{fill:#ffdc06}.s2{fill:#e4d6b6}.s3{fill:#121111}.s4{fill:#fff}.s5{fill:#ffe697}.s6{fill:#b0dfdb}.s7{fill:#b04933}.s9{fill:#acb8d1}.s11{fill:#58595b}.s12{fill:#c6daa7}.s13{fill:#e6eed8}.s14{fill:#ffcac7}.s15{fill:#e8c205}</style><path fill-rule="evenodd" class="svg-elem-1" d="M316.7 400.6c-173.2 0-313.3-17.3-313.3-38.7s140.1-38.6 313.3-38.6c173.3 0 313.3 17.2 313.3 38.6s-140 38.7-313.3 38.7" style="fill:#f5f8f9"/><g><animateTransform attributeName="transform" attributeType="XML" type="translate" values="10 0; -5 0; 10 0" dur="5s" repeatCount="indefinite"/><path class="s1 svg-elem-2" d="M484.6 35.4s5.8 5.2 7.3 10.1c1.6 5 1.3 8.1 0 11.8-1.3 3.6-2.1 5.2-1.5 7.3.5 2.1 4.1 5.7 6.7 12.8 2.6 7 1.9 17.4 1.9 20.8s-1.6 4.7-3.4 5.5c-1.9.8-28.7 0-30.3-.5-1.5-.5-2.8-2.1-3.1-5-.3-2.8-.5-19 1.6-24.2 2-5.2 6-8.6 6.2-11.5.3-2.9-2.1-4.7-2.6-9.1-.5-4.5 1.3-11.5 7.3-17.8z"/><path fill-rule="evenodd" class="s2 svg-elem-3" d="M475 33.3h9.9c.7 0 1.3.6 1.3 1.3v.7c0 .8-.6 1.4-1.3 1.4H475c-.7 0-1.3-.6-1.3-1.4v-.7c0-.7.6-1.3 1.3-1.3"/><path class="s2 svg-elem-4" d="M474.9 28c0-1.4 1.2-2.6 2.6-2.6h3.8c1.3 0 2.4 1 2.6 2.2l1.2 6.7h-10.4z"/><path fill-rule="evenodd" class="s3 svg-elem-5" d="M475 33h9.8v.5H475z"/><path class="s4 svg-elem-6" d="M491.5 90s1.9-12.3-.2-17.7c-2.1-5.5-3.4-7.1-4.5-10.7-1-3.7 2.4-6.8 1.1-12.3s-5.8-7-9.9-6.5c-4.2.5-6.8 3.9-6.8 7.5 0 3.7 2.1 7.1 2.1 9.7s-1.9 5.2-4.2 11.2c-2.4 6-2.1 17.7-.3 20.9 1.9 3.1 16.5 3.9 19.6 2.1 3.1-1.9 3.1-4.2 3.1-4.2"/><path class="s3 svg-elem-7" d="M481.8 95.4c-1.3 0-2.6-.1-3.7-.2-1.9-.1-8.2-.8-9.5-3-1.9-3.2-2.1-15.1.2-21.1.9-2.1 1.7-3.9 2.3-5.3 1.1-2.5 1.9-4.2 1.9-5.8 0-1.1-.4-2.5-.9-3.9-.6-1.8-1.2-3.7-1.2-5.7 0-4.1 3-7.4 7-7.9 5.2-.6 9.1 1.9 10.2 6.7.7 3.1 0 5.4-.5 7.4-.6 1.8-1 3.3-.5 4.9.5 1.9 1.2 3.3 2 5 .6 1.5 1.4 3.1 2.4 5.7 2.1 5.4.4 17.1.3 17.8 0 .3-.2 2.6-3.3 4.4-1.2.7-3.9 1-6.8 1zM479.5 43h-1.4c-3.8.5-6.6 3.6-6.6 7.3 0 2 .7 3.9 1.2 5.6.5 1.5.9 2.8.9 4.1 0 1.7-.8 3.4-1.9 6-.7 1.4-1.4 3.2-2.3 5.3-2.3 5.9-2.1 17.5-.2 20.6.7 1.3 4.2 2.4 9 2.8 4.5.4 8.7 0 10.1-.8 3-1.7 3-3.9 3-3.9v-.1c.1-.1 1.8-12.2-.2-17.6-1-2.5-1.7-4.1-2.4-5.6-.8-1.7-1.5-3.1-2-5.1-.5-1.7-.1-3.4.5-5.1.5-2 1.2-4.3.5-7.2-1.3-5.5-5.7-6.4-8.2-6.4z"/></g><g><animateTransform attributeName="transform" attributeType="XML" type="translate" values="-5 0; 5 0; -5 0" dur="5s" repeatCount="indefinite"/><path class="s5 svg-elem-8" d="M413.3 78.3c.7 12.3 4.7 24.2 4.7 24.2l33 .3s2.9-18.3 2.4-28.3-3.8-15.9-7.8-20.7c-4.1-4.7-5.3-8.3-5.3-8.3l-8.8.3c-.7 2.1-2.1 5-3.5 6.6-1.5 1.7-8.1 6.2-10 7.9-1.9 1.6-5.5 5.7-4.8 18zm5.6-9.6c1.2-3.6 3.6-6 5.5-5.5s2.1 5.5 1.6 11.9c-.4 6.4-2.1 10.7-2.1 10.7s-.9 3.5-2.6 3.1c-1.7-.5-2.9-3.1-3.1-6.9s-.5-9.7.7-13.3"/><path class="s6 svg-elem-9" d="M430.9 44h9.9c.3 0 .6.3.7.6l.1 1c0 .4-.3.8-.7.8h-10c-.3 0-.7-.4-.7-.7v-1c0-.4.4-.7.7-.7"/><path class="s6 svg-elem-10" d="M432.3 38.4c0-1.4 1.2-2.5 2.6-2.5h2.1c1.4 0 2.5 1.1 2.6 2.5l.1 6.3h-7.6z"/><path class="s4 svg-elem-11" d="M449.9 87.7c.1 0 .3-11.7-1.1-18.1-1.5-6.4-4.1-9.9-6.9-11.4-2.9-1.4-6.4-1.9-9.5-.2s-3.8 5.9-3.8 8.8c0 2.8-.5 12.6-1 17.6s-.5 9 1 10.4c1.4 1.4 12.8 1.9 16.1 1 3.3-1 5.3-4.1 5.3-8.1z"/><path class="s3 svg-elem-12" d="M438.9 96.5c-4.4 0-9.5-.5-10.5-1.5-1.3-1.3-1.6-4.5-1.1-10.7.5-5 1-14.7 1-17.5 0-2.1.4-7.1 3.9-9 2.9-1.6 6.4-1.5 9.8.2 2.3 1.1 5.3 4.1 7 11.6 1.4 6.3 1.2 17.9 1.2 18.1 0 4.2-2 7.3-5.4 8.3-1.3.4-3.5.5-5.9.5m-2.2-39.3c-1.5 0-3 .3-4.2 1-3.3 1.8-3.7 6.6-3.7 8.6 0 2.8-.5 12.5-.9 17.6-.4 4-.7 8.7.8 10.2 1.3 1.3 12.4 1.9 15.9.9 3.2-.9 5.1-3.8 5.1-7.8 0-.1.2-11.7-1.2-18-1.6-7.3-4.6-10.2-6.8-11.2-1.7-.9-3.4-1.3-5.1-1.3z"/><path fill-rule="evenodd" class="s3 svg-elem-13" d="M432.2 43.9v-.5l7.5.3v.5z"/></g><path fill-rule="evenodd" class="s4 svg-elem-14" d="M378.1 102.9h189.6v263.8H378.1z"/><path fill-rule="evenodd" class="s1 svg-elem-15" d="M378.1 138.9h189.6v7H378.1z"/><path fill-rule="evenodd" class="s3 svg-elem-16" d="M378.1 138.7h189.6v.5H378.1z"/><path fill-rule="evenodd" class="s3 svg-elem-17" d="M378.1 107.1h189.6v.6H378.1z"/><path fill-rule="evenodd" class="s3 svg-elem-18" d="M378.1 323.5h189.6v.5H378.1z"/><g style="transform-origin:469.9px 233.9px;animation:rotate 2s linear infinite"><path class="s4 svg-elem-19" d="M551.9 220.2c-.1-4.1-3.6-7.4-7.8-7.2l-7.5.4.4 31.5 8.4-.6c3.9-.3 6.9-3.6 6.9-7.5z"/><path class="s3 svg-elem-20" d="m536.8 245.2-.4-32.1 7.7-.3c2.1-.1 4.1.6 5.6 2s2.4 3.3 2.4 5.4l.4 16.6c.1 4.1-3 7.5-7.1 7.8zm.1-31.6.4 31 8.1-.6c3.8-.2 6.7-3.4 6.6-7.2l-.4-16.6c0-1.9-.9-3.7-2.3-5s-3.2-2-5.1-1.9z"/><path class="s1 svg-elem-21" d="M527.9 233.9c0 32-26 58-58 58-27.7 0-50.9-19.5-56.6-45.6-.9-4-1.3-8.1-1.3-12.4 0-32 25.9-57.9 57.9-57.9 26.6 0 48.9 17.8 55.8 42.2 1.4 5 2.2 10.3 2.2 15.7"/><path class="s3 svg-elem-22" d="M469.9 279.4c-21.2 0-39.9-15-44.4-35.7-.7-3.2-1.1-6.5-1.1-9.8 0-25.1 20.4-45.5 45.5-45.5 20.3 0 38.3 13.7 43.8 33.2 1.1 4 1.7 8.1 1.7 12.3 0 25.1-20.4 45.5-45.5 45.5m0-90.5c-24.8 0-45 20.2-45 45 0 3.3.4 6.5 1.1 9.7 4.5 20.4 22.9 35.3 43.9 35.3 24.8 0 45-20.2 45-45 0-4.1-.6-8.2-1.7-12.2-5.4-19.3-23.2-32.8-43.3-32.8"/><path class="s4 svg-elem-23" d="M417.5 204.1s7.7.8 10.2 12.5c2.6 11.7.1 29.5-9.5 32.6-9.5 3.1-16.1-19.5-13.6-29.8 2.6-10.4 12.9-15.3 12.9-15.3"/><path class="s3 svg-elem-24" d="M416.4 249.7q-2.4 0-4.8-2.1c-5.9-5.6-9.1-20.7-7.2-28.3 2.5-10.4 12.8-15.4 13-15.4v-.1h.1c.1.1 7.9 1 10.5 12.8 2.5 11.6.1 29.7-9.7 32.8q-.9.4-1.9.4zm1.1-45.4c-.9.5-10.2 5.4-12.6 15-1.9 7.5 1.2 22.4 7.1 27.8 2 1.8 4 2.4 6.1 1.7 9.5-3.1 11.9-20.8 9.4-32.2-2.4-10.8-9.2-12.2-10-12.3"/><path class="s4 svg-elem-25" d="M469.9 161.3c-40.1 0-72.6 32.5-72.6 72.6s32.5 72.6 72.6 72.6 72.6-32.5 72.6-72.6-32.5-72.6-72.6-72.6m0 130.6c-27.7 0-50.9-19.5-56.6-45.6-.9-4-1.3-8.1-1.3-12.4 0-32 25.9-57.9 57.9-57.9 26.6 0 48.9 17.8 55.8 42.2 1.4 5 2.2 10.3 2.2 15.7 0 32-26 58-58 58"/><path class="s3 svg-elem-26" d="M469.9 306.8c-40.2 0-72.9-32.7-72.9-72.9s32.7-72.9 72.9-72.9 72.9 32.7 72.9 72.9-32.7 72.9-72.9 72.9m0-145.2c-39.9 0-72.3 32.4-72.3 72.3s32.4 72.3 72.3 72.3 72.4-32.4 72.4-72.3-32.5-72.3-72.4-72.3m0 130.5c-13.3 0-26.4-4.6-36.7-13.1-10.2-8.3-17.4-19.8-20.1-32.6-.9-4.1-1.4-8.3-1.4-12.5 0-32.1 26.1-58.2 58.2-58.2 26 0 49 17.5 56.1 42.4 1.4 5.1 2.1 10.5 2.1 15.8 0 32.1-26.1 58.2-58.2 58.2m0-115.8c-31.8 0-57.6 25.8-57.6 57.6 0 4.2.4 8.4 1.3 12.4 5.7 26.2 29.4 45.3 56.3 45.3 31.8 0 57.7-25.9 57.7-57.7 0-5.3-.7-10.6-2.2-15.6-6.9-24.8-29.7-42-55.5-42"/></g><path fill-rule="evenodd" class="s3 svg-elem-27" d="M442 107.4h.5l.2 31.5h-.5z"/><path fill-rule="evenodd" class="s1 svg-elem-28" d="M484.2 136.9c-7.5 1.2-14.5-3.9-15.7-11.4-1.3-7.5 3.8-14.5 11.3-15.8 7.5-1.2 14.6 3.9 15.8 11.4s-3.8 14.6-11.4 15.8"/><path class="s3 svg-elem-29" d="M482 137.4c-7.7 0-14-6.3-14-14 0-7.8 6.3-14.1 14-14.1 7.8 0 14 6.3 14 14.1 0 7.7-6.2 14-14 14m0-27.5c-7.4 0-13.5 6-13.5 13.5 0 7.4 6.1 13.4 13.5 13.4 7.5 0 13.5-6 13.5-13.4 0-7.5-6-13.5-13.5-13.5"/><path fill-rule="evenodd" class="s3 svg-elem-30" d="M447.9 114.5H467v.5h-19.1z"/><path fill-rule="evenodd" class="s3 svg-elem-31" d="m447.9 132.3 19.1-.1v.6h-19.1z"/><path fill-rule="evenodd" class="s3 svg-elem-32" d="M447.9 120.5h17.6v.6h-17.6z"/><path fill-rule="evenodd" class="s3 svg-elem-33" d="M447.9 126.2h17.6v.5h-17.6z"/><path fill-rule="evenodd" class="s3 svg-elem-34" d="M496.7 114.5h19.1v.5h-19.1z"/><path fill-rule="evenodd" class="s3 svg-elem-35" d="m496.7 132.3 19.1-.1v.6h-19.1z"/><path fill-rule="evenodd" class="s3 svg-elem-36" d="M498.2 120.5h17.6v.6h-17.6z"/><path fill-rule="evenodd" class="s3 svg-elem-37" d="M498.2 126.2h17.6v.5h-17.6z"/><path class="s3 svg-elem-38" d="M563.6 134.9h-40.2l-.7-24.3 40.9-.6zm-39.7-.6h39.2v-23.7l-39.8.6z"/><path class="s3 svg-elem-39" d="M431.7 134.2h-46.6v-5h46.6zm-46-.5h45.5v-4h-45.5z"/><path class="s3 svg-elem-40" d="M567.9 366.9H377.8V102.7h190.1zm-189.6-.6h189.1V103.1H378.3z"/><path class="s3 svg-elem-41" d="M271.7 20.4H112.2v-4.3h159.5zm-159-.6h158.5v-3.2H112.7z"/><g><animateTransform attributeName="transform" type="translate" values="5 0; -5 0; 5 0" dur="5s" repeatCount="indefinite"/><path class="s4 svg-elem-42" d="m114.3 136.2 1.5.1 36.4 2.7 18.5.3-.1-5.4-.3-8.4-.1-5.5-.2-8.8-.2-5.5-.1-6.8-.2-5.5-.1-6.9-.2-5.3-.1-6-.2-5.3-.1-7.3-.2-5.4-.2-6.9-.1-5.3-.2-6.7-.1-5.1v-.4s-.2.1-.5.4c-1.3.9-4.6 3.1-8.3 4.6-2.2.9-4.6 1.5-6.8 1.5-2.5-.1-4.8-1-6.6-2.1-3.4-2.2-5.4-5.3-5.4-5.3-8.9 1.3-15.2 3.2-16.6 3.7h-.2l-.1.1-.1.4-.7 7.9-.5 5.3-.6 6.8-.4 5-.7 7.4-.5 5.6-.6 6.3-.5 5-.6 7-.5 5.6-.6 6.7-.5 5.6-.8 8.7-.5 5.5-.8 8.3z"/><path class="s3 svg-elem-43" d="M152.1 32.4h-.5v-7.8l.2-.1s4.2-.7 4.4-3.8c.2-1.4-.5-2.7-1.7-3.6-1.1-.8-2.4-1-3.5-.5l-.2-.5c1.2-.5 2.8-.3 4 .6 1.4.9 2.1 2.5 2 4.1-.3 3-3.7 4-4.6 4.2l-.1 7.3z"/><path class="s4 svg-elem-44" d="m80.8 155 32 1.6.9-6 .8-5.5 1-6.7.3-2.1.5-3.5 1.2-8.3.8-5.5 1.2-8.7.8-5.5 1-6.8.8-5.5 1.1-7 .7-5 .9-6.3.8-5.5 1.1-7.5.7-5 1-6.8.8-5.3 1.1-7.7.3-1.9s-2.8-.2-6.8 1.1h-.2l-.1.1q-.6.1-1.1.4c-3.4 1.2-7.4 3.5-11.2 7.7q-.9.9-1.8 2-1.1 1.4-2.2 3.1c-1.3 2.1-2.6 4.3-3.9 6.8q-1.2 2.2-2.3 4.7-1.7 3.6-3.2 7.5-1.1 2.8-2.1 5.6-1.2 3.3-2.3 6.6-.7 2.3-1.4 4.7-1.1 3.6-2 7.1-.8 2.8-1.4 5.6-.6 2.5-1.1 5-.2.8-.4 1.7-.5 2.6-.9 5.5c-.5 2.8-.9 5.7-1.4 8.7q-.3 2.7-.7 5.5c-.4 2.8-.7 5.6-1 8.3q-.3 2.9-.6 5.6c-.3 2.4-.5 4.6-.7 6.7-.3 2.1-.4 4-.6 5.5-.3 3.1-.4 4.9-.4 4.9z"/><path class="s7 svg-elem-45" d="M140.7 32.2s8.2-2.9 11.1-2.9 14.8 4.9 14.8 4.9l-6.3 3.8s-4.1-1.6-7.5-2.1c-3.4-.4-8.2 1-8.2 1z"/><path class="svg-elem-46" d="M159.2 37.8c3 .2 6 .3 8.9.4l-.1-5h-.6c-1.2.9-4.5 3.1-8.2 4.6" style="fill:#ffb6d1"/><path class="s9 svg-elem-47" d="M122.4 36q.5.1 1 .1 3.15.15 6.9.3c4.7.3 10 .5 15.5.8-3.4-2.2-5.5-5.3-5.5-5.3-8.8 1.3-15.1 3.2-16.6 3.7h-.1l-.1.1h-.1q-.5.2-1 .3"/><path class="s9 svg-elem-48" d="m107.2 48.9 15 .4 6.2.1 40 .9-.1-5.3-39.1-.9-6.5-.1-11.5-.2q-.9.9-1.8 2-1.1 1.5-2.2 3.1"/><path class="s9 svg-elem-49" d="m101 60.4 20.1.7 5.6.1 42 1.4-.1-5.4-41.2-1-5.8-.1-18.3-.4q-1.2 2.2-2.3 4.7"/><path class="s9 svg-elem-50" d="m95.7 73.5 24.3.6 4.8.1 44.3 1-.2-5.3-43.3-1.2-5.1-.2-22.7-.6q-1.1 2.8-2.1 5.6"/><path class="s9 svg-elem-51" d="m92 84.8 26.9.6 4.3.1 46.1 1-.1-5.3-45.3-.7-4.5-.1-26-.3q-.7 2.3-1.4 4.7"/><path class="s9 svg-elem-52" d="m88.6 97.5 29.2.5h3.5l48.4.9-.2-5.5-47.4-.9-3.8-.1-28.3-.5q-.8 2.8-1.4 5.6"/><path class="s9 svg-elem-53" d="m86.1 109.7 30.6.6h2.8l50.5.9-.2-5.5-49.5-.9-3.1-.1-30.1-.5q-.5 2.6-1 5.5"/><path class="s9 svg-elem-54" d="m84.1 123.9 31.3.6h2.1l52.8 1-.1-5.5-51.9-1h-2.4l-31.1-.6q-.4 2.7-.7 5.5"/><path class="s9 svg-elem-55" d="m82.5 137.8 32.9.5.3-.2 36.4.9 18.6.3-.2-5.4-54.3-1.1h-1.6l-31.5-.6q-.4 2.9-.6 5.6"/><path class="s9 svg-elem-56" d="m81.2 150.1 32.5.5.8-5.5-32.7-.6c-.3 2.1-.4 4-.6 5.6"/><path fill-rule="evenodd" class="s9 svg-elem-57" d="m80.8 154.7 32 1.8-.9 5.3-32.1-.9z"/><path fill-rule="evenodd" class="s3 svg-elem-58" d="m115.2 138.3 6.7-87.6.5.1-6.7 87.6z"/></g><g><animateTransform attributeName="transform" type="translate" values="-5 0; 5 0; -5 0" dur="5s" repeatCount="indefinite"/><path class="s3 svg-elem-59" d="M185.4 32.4h-.5l.1-7.8.2-.1s4.1-.7 4.4-3.8c.1-1.4-.5-2.7-1.7-3.6-1.2-.8-2.5-1-3.5-.5l-.2-.5c1.2-.5 2.7-.3 4 .6s2.1 2.5 1.9 4.1c-.3 3-3.7 4-4.6 4.2v7.3z"/><path class="s5 svg-elem-60" d="M201.4 35.2s9.7 2 18.4 6c8.6 3.9 18.3 15.2 25.1 34.5l-32.6 3z"/><path fill-rule="evenodd" class="s5 svg-elem-61" d="m159.8 48.4-22.2 121.2 91.3 3.3-21.7-127.8-4.9-9.4-18.3-2.9h-15z"/><path class="s7 svg-elem-62" d="M174.1 32.2s8.2-2.9 11.1-2.9 12.4 4.4 12.4 4.4l-6.1 3.6s-2-.9-5.3-1.4c-3.4-.4-8.3 1-8.3 1z"/><path class="s5 svg-elem-63" d="M168.9 32.7s-11.5 2.5-22.1 9.1C136.1 48.4 126 72.9 126 72.9l28 7.5 7.7-30.6z"/><path class="s4 svg-elem-64" d="m176.2 30.9-8.9 2.2s.7 21.9 8 21.9c5.8 0 8.9-16.7 8.9-16.7s3.9 16.9 9.7 16c5.8-1 8.7-18.9 8.7-18.9l-9.2-3.7-9.4 5.8z"/><path fill-rule="evenodd" class="s3 svg-elem-65" d="m153.7 80.4 5.8-29.2.6.1-5.9 29.2z"/><path class="s3 svg-elem-66" d="m175.7 120.3-21-.4 3-26.3 18.8.5zm-20.4-1 19.9.4.8-25.2-17.7-.4z"/><path class="s3 svg-elem-67" d="M184 63.4c-.3-.2-2.4-.4-4.1-.4v-.5c2.3 0 3.5.1 4.1.3V38.3h.5v25h-.6q.1 0 .1.1"/></g><g><animateTransform attributeName="transform" type="translate" values="5 0; -5 0; 5 0" dur="5s" repeatCount="indefinite"/><path class="s3 svg-elem-68" d="M243.4 32.3h-.5l.1-7.8.2-.1s4.1-.7 4.4-3.8c.1-1.4-.5-2.7-1.7-3.6-1.2-.8-2.5-1-3.5-.5l-.2-.5c1.2-.5 2.7-.3 4 .6s2.1 2.5 1.9 4.1c-.3 3-3.7 4-4.6 4.2v7.4z"/><path class="s7 svg-elem-69" d="M232.3 32.8s8.2-2.8 11.1-2.8 12.4 4.3 12.4 4.3l-6.1 3.7s-1.9-.9-5.3-1.4-8.2.9-8.2.9z"/><path class="s6 svg-elem-70" d="M210.6 139.9h1.2l8.1.1 42.1.7 10 .1-.2-11.2-1.3-68.5-15-26.9s-3.9 3.3-11.6 3.3-11.6-4.7-11.6-4.7l-18.8 16.5z"/><path fill-rule="evenodd" class="s6 svg-elem-71" d="m211.8 139.9 8.1.1-3.5-89.7z"/><path class="s6 svg-elem-72" d="M232.3 32.8s-17.9 2.9-28 10.9c-10.2 8-13.6 24-14.5 34.9-1 10.8-1.5 82.5-1.5 82.5l25.7.4 2.4-111.2z"/><path fill-rule="evenodd" class="svg-elem-73" d="m262 140.7 10 .1-.2-11.2-7.3-71.8z" style="fill:#ff72a8"/><path class="s6 svg-elem-74" d="M255.5 34.3s18.4 5.6 26.1 16.5c7.8 10.8 10.2 27.8 11.6 53.2 1.5 25.5 1 58.5 1 58.5h-24.7l-5.3-110.8z"/><path fill-rule="evenodd" class="s3 svg-elem-75" d="m241.6 140.3 2-102.8.6.1-2 102.7z"/><path class="s3 svg-elem-76" d="M239.4 43.7c1.9 0 1.9 2.8 0 2.8-1.8 0-1.8-2.8 0-2.8"/><path class="s3 svg-elem-77" d="M239.2 72.9c1.8 0 1.8 2.8 0 2.8-1.9 0-1.9-2.8 0-2.8"/><path class="s3 svg-elem-78" d="M238.2 101.2c1.9 0 1.9 2.8 0 2.8s-1.9-2.8 0-2.8"/><path class="s3 svg-elem-79" d="M237.9 128.6c1.9 0 1.9 2.9 0 2.9-1.8 0-1.8-2.9 0-2.9"/><path fill-rule="evenodd" class="s3 svg-elem-80" d="m264.9 59.3.6-.1 3.3 81.6h-.6z"/><path fill-rule="evenodd" class="s3 svg-elem-81" d="m214.2 139.9 2-85 .5.1-2 84.9z"/></g><path class="s1 svg-elem-82" d="M192.1 296.6s4.2-1.7 4.1-9.8c-.1-8.2-3.3-11.4-6.4-11.3-3.2 0-82.9-.6-88.2-.5-5.2.1-7.2 8.7-6.1 13.5 1.1 4.9 3.3 7.5 5.4 7.2s91.2.9 91.2.9"/><path class="s4 svg-elem-83" d="M189.8 275.9s3.1 0 4.1-5.2-1.2-9.3-3.3-10.3-87.1-.9-90.2.1c-3.1 1.1-5.1 6.3-4.1 9.4 1.1 3.1 2.2 5.1 5.4 5.1 3.1 0 88.1.9 88.1.9"/><path class="s5 svg-elem-84" d="M190.6 260.4s5.2-1.1 5.2-6.3c-.1-5.2-3.3-8.2-6.4-9.2-3.2-1-84-1-88.1.1-4.2 1.1-6.3 5.3-5.2 9.4s2.2 6.2 4.3 6.1c2.1 0 90.2-.1 90.2-.1"/><path class="s3 svg-elem-85" d="M189.8 276.2c-.9 0-85.1-1-88.1-.9h-.1c-3.4 0-4.5-2.4-5.5-5.3-.6-1.7-.3-4 .7-6.1.8-1.8 2.1-3.1 3.5-3.6 3-1 88.3-1.2 90.4-.2 2.4 1.2 4.4 5.6 3.5 10.6-1 5.4-4.3 5.5-4.4 5.5m-87.8-1.5c6.3 0 86.7.9 87.8.9.1 0 2.9-.1 3.8-5 1-5.1-1.2-9.1-3.1-10-2.2-.9-87.1-.8-90 .2-1.2.4-2.4 1.6-3.2 3.3-1 1.9-1.2 4.2-.7 5.7 1.2 3.3 2.2 4.9 5 4.9z"/><path fill-rule="evenodd" class="s5 svg-elem-86" d="M77.4 291.5v.3l.8 6 9 68.9 116.9-.5 11.2-68.9 1-6 .4-2.5z"/><path fill-rule="evenodd" class="s1 svg-elem-87" d="m77.4 291.8.8 6 137.1-.5 1-6z"/><path fill-rule="evenodd" class="s5 svg-elem-88" d="m74 293.9 145.6-.3 1.5-8.4-149.2 1z"/><path fill-rule="evenodd" class="s3 svg-elem-89" d="m77.4 293.7 138.5-.5v.5l-138.5.6z"/><path class="s1" d="M203.5 300.6c2.2 0 4.3 2 4.2 4.3-.1 2.2-1.8 4.2-4.2 4.2-2.2 0-4.3-2-4.2-4.2.1-2.3 1.8-4.3 4.2-4.3" style="animation:animate__fadeIn 1.2s ease infinite 2.7s"/><path class="s1" d="M200.9 316.7c2.2 0 4.3 1.9 4.2 4.2s-1.8 4.2-4.2 4.2c-2.2 0-4.3-1.9-4.2-4.2s1.9-4.2 4.2-4.2" style="animation:animate__fadeIn 1.2s ease infinite 2.6s"/><path class="s1" d="M198.1 334.5c2.2 0 4.3 1.9 4.2 4.2-.1 2.2-1.9 4.2-4.2 4.2-2.2 0-4.3-2-4.3-4.2.1-2.3 1.9-4.2 4.3-4.2" style="animation:animate__fadeIn 1.2s ease infinite 2.5s"/><path class="s1" d="M191.9 354.2q.3-.7.9-1.3t1.3-.9q.8-.4 1.7-.3.5 0 1.1.1 1 .3 1.8 1.1.4.4.7.8.6 1 .6 2.2v.2q0 .9-.4 1.7-.2.7-.9 1.3-.5.6-1.3.9-.8.4-1.6.4l-1.2-.2q-1-.3-1.8-1.1-.3-.4-.7-.8-.5-1-.5-2.1v-.3q-.1-.9.3-1.7" style="animation:animate__fadeIn 1.2s ease infinite 2.4s"/><path class="s1" d="M184.6 300.1c2.2 0 4.3 1.9 4.2 4.2s-1.8 4.2-4.2 4.2c-2.2 0-4.3-1.9-4.2-4.2s1.8-4.2 4.2-4.2" style="animation:animate__fadeIn 1.2s ease infinite 2.3s"/><path class="s1" d="M183.7 315.8c2.2 0 4.3 2 4.2 4.2-.1 2.3-1.8 4.3-4.2 4.3-2.2 0-4.3-2-4.2-4.3.1-2.2 1.9-4.2 4.2-4.2" style="animation:animate__fadeIn 1.2s ease infinite 2.2s"/><path class="s1" d="M182 334.7c2.2 0 4.3 2 4.2 4.3-.1 2.2-1.8 4.2-4.2 4.2-2.2 0-4.3-2-4.2-4.3.1-2.2 1.8-4.2 4.2-4.2" style="animation:animate__fadeIn 1.2s ease infinite 2.1s"/><path class="s1" d="M180.3 352.2c2.2 0 4.3 2 4.2 4.2-.1 2.3-1.9 4.2-4.2 4.2-2.2 0-4.3-1.9-4.2-4.2.1-2.2 1.8-4.2 4.2-4.2" style="animation:animate__fadeIn 1.2s ease infinite 2s"/><path class="s1" d="M161.3 303.4q.3-1 1.1-1.8.4-.3.9-.7 1-.5 2.1-.5h.3q.8-.1 1.6.3.8.3 1.3.9.7.6.9 1.3.4.8.4 1.7-.1.5-.2 1.1-.3 1-1.1 1.8-.4.4-.8.7-1 .6-2.1.6h-.3q-.9 0-1.6-.4-.8-.2-1.4-.9-.6-.5-.9-1.3t-.3-1.6q.1-.6.1-1.1z" style="animation:animate__fadeIn 1.2s ease infinite 1.9s"/><path class="s1" d="M165.7 316.4c2.2 0 4.3 2 4.2 4.2-.1 2.3-1.9 4.2-4.2 4.2-2.2 0-4.3-1.9-4.2-4.2s1.8-4.2 4.2-4.2" style="animation:animate__fadeIn 1.2s ease infinite 1.8s"/><path class="s1" d="M164.3 334.7c2.1 0 4.3 2 4.2 4.3-.1 2.2-1.9 4.2-4.3 4.2-2.2 0-4.3-2-4.2-4.3.1-2.2 1.9-4.2 4.2-4.2z" style="animation:animate__fadeIn 1.2s ease infinite 1.7s"/><path class="s1" d="M163.1 351.9c2.2 0 4.3 2 4.2 4.3-.1 2.2-1.8 4.2-4.2 4.2-2.2 0-4.3-2-4.2-4.3.1-2.2 1.8-4.2 4.2-4.2" style="animation:animate__fadeIn 1.2s ease infinite 1.6s"/><path class="s1" d="M145.1 300.1c2.2 0 4.3 1.9 4.2 4.2s-1.9 4.2-4.2 4.2c-2.2 0-4.4-1.9-4.3-4.2s1.9-4.2 4.3-4.2" style="animation:animate__fadeIn 1.2s ease infinite 1.5s"/><path class="s1" d="M144.8 316.1c2.2 0 4.3 2 4.2 4.2-.1 2.3-1.9 4.2-4.2 4.2-2.2 0-4.3-1.9-4.2-4.2s1.8-4.2 4.2-4.2" style="animation:animate__fadeIn 1.2s ease infinite 1.4s"/><path class="s1" d="M144.8 334.7c2.1 0 4.3 2 4.2 4.3-.1 2.2-1.9 4.2-4.3 4.2-2.2 0-4.3-2-4.2-4.3.1-2.2 1.9-4.2 4.2-4.2z" style="animation:animate__fadeIn 1.2s ease infinite 1.3s"/><path class="s1" d="M144.7 351.9c2.2 0 4.4 2 4.3 4.3-.1 2.2-1.9 4.2-4.3 4.2-2.2 0-4.3-2-4.2-4.3.1-2.2 1.9-4.2 4.2-4.2" style="animation:animate__fadeIn 1.2s ease infinite 1.2s"/><path class="s1" d="M124.4 299.8c2.2 0 4.3 1.9 4.2 4.2s-1.8 4.2-4.2 4.2c-2.2 0-4.3-1.9-4.2-4.2s1.9-4.2 4.2-4.2" style="animation:animate__fadeIn 1.2s ease infinite 1.1s"/><path class="s1" d="M125.6 316.1c2.2 0 4.3 1.9 4.2 4.2s-1.9 4.2-4.2 4.2c-2.2 0-4.3-1.9-4.3-4.2.1-2.3 1.9-4.2 4.3-4.2" style="animation:animate__fadeIn 1.2s ease infinite 1s"/><path class="s1" d="M125.6 334.7c2.2 0 4.3 2 4.2 4.2-.1 2.3-1.9 4.2-4.2 4.2-2.2 0-4.3-1.9-4.3-4.2.1-2.2 1.9-4.2 4.3-4.2" style="animation:animate__fadeIn 1.2s ease infinite .9s"/><path class="s1" d="M121.4 354.2q.3-.7.9-1.3.4-.3.8-.7 1-.5 2.2-.5.5 0 1.1.1 1.1.3 1.9 1.1l.2.3q.7.5.9 1.3.4.8.4 1.6 0 .9-.4 1.7-.2.7-.9 1.3-.4.4-.8.7-1 .6-2.1.6-.6-.1-1.1-.2-1.1-.3-1.9-1.1l-.3-.3q-.6-.5-.9-1.3-.4-.8-.3-1.6-.1-.9.3-1.7" style="animation:animate__fadeIn 1.2s ease infinite .8s"/><path class="s1" d="M105.2 299.8c2.2 0 4.3 1.9 4.2 4.2s-1.8 4.2-4.2 4.2c-2.2 0-4.3-1.9-4.2-4.2s1.9-4.2 4.2-4.2" style="animation:animate__fadeIn 1.2s ease infinite .7s"/><path class="s1" d="M106.9 315.8c2.2 0 4.3 2 4.3 4.2-.1 2.3-1.9 4.2-4.3 4.2-2.2 0-4.3-1.9-4.2-4.2s1.9-4.2 4.2-4.2" style="animation:animate__fadeIn 1.2s ease infinite .6s"/><path class="s1" d="M107.5 334.5c2.2 0 4.3 1.9 4.2 4.2-.1 2.2-1.8 4.2-4.2 4.2-2.2 0-4.3-2-4.2-4.2.1-2.3 1.8-4.2 4.2-4.2" style="animation:animate__fadeIn 1.2s ease infinite .5s"/><path class="s1" d="M108.6 352.2c2.2 0 4.3 2 4.2 4.2-.1 2.3-1.8 4.2-4.2 4.2-2.2 0-4.3-1.9-4.2-4.2.1-2.2 1.9-4.2 4.2-4.2" style="animation:animate__fadeIn 1.2s ease infinite .4s"/><path class="s1" d="M87.2 299.5c2.2 0 4.3 1.9 4.2 4.2s-1.9 4.2-4.2 4.2c-2.2 0-4.3-1.9-4.2-4.2s1.8-4.2 4.2-4.2" style="animation:animate__fadeIn 1.2s ease infinite .3s"/><path class="s1" d="M88.9 316.4c2.2 0 4.3 1.9 4.2 4.2s-1.9 4.2-4.2 4.2c-2.2 0-4.3-1.9-4.2-4.2s1.8-4.2 4.2-4.2" style="animation:animate__fadeIn 1.2s ease infinite .2s"/><path class="s1" d="M89.8 334.7c2.2 0 4.3 2 4.2 4.3-.1 2.2-1.9 4.2-4.2 4.2-2.2 0-4.3-2-4.2-4.3.1-2.2 1.8-4.2 4.2-4.2" style="animation:animate__fadeIn 1.2s ease infinite .1s"/><path class="s1" d="M87.9 354.5q.3-.8.9-1.3.6-.6 1.3-.9.8-.4 1.7-.4l1.1.2q1 .3 1.8 1.1.4.4.7.8.6 1 .6 2.1v.3q0 .9-.4 1.6-.2.8-.9 1.4-.5.6-1.3.9-.8.4-1.6.3-.6 0-1.2-.1-1-.3-1.8-1.1-.3-.4-.7-.8-.5-1-.5-2.2v-.3q-.1-.8.3-1.6" style="animation:animate__fadeIn 1.2s ease infinite 0s"/><path class="s4 svg-elem-118" d="m280.3 340.1-1.1 25.5 79.7 1.1s-1-6.4-5.3-8.6c-4.2-2.1-36.1-9.5-36.1-9.5v-7.5z"/><path class="s3 svg-elem-119" d="m359.3 366.9-80.4-1v-.3l1.1-25.8h.3l37.4 1.1v7.5c3 .7 31.9 7.5 36 9.5 4.4 2.2 5.5 8.5 5.5 8.7v.3zm-79.7-1.6 79.1 1.1c-.3-1.3-1.5-6.2-5.1-8-4.2-2.1-35.8-9.5-36.1-9.6h-.2v-7.4l-36.7-1z"/><path class="s4 svg-elem-120" d="m238.8 340.1-1.1 25.5 79.8 1.1s-1.1-6.4-5.3-8.6c-4.3-2.1-36.2-9.5-36.2-9.5v-7.5z"/><path class="s3 svg-elem-121" d="m317.8 366.9-80.4-1v-.3l1.1-25.8h.3l37.5 1.1v7.5c2.9.7 31.9 7.5 36 9.5 4.3 2.2 5.4 8.5 5.4 8.7zm-79.8-1.6 79.1 1.1c-.2-1.3-1.5-6.2-5.1-8-4.2-2.1-35.7-9.5-36.1-9.6h-.2v-7.4l-36.7-1z"/><path fill-rule="evenodd" class="s3 svg-elem-122" d="m261.5 105.2-35.5 5.3 1.9 8.1 29.2-7.6-22 13.4 4.3 7.2 24-20.1z"/><path class="s11 svg-elem-123" d="M351.6 350.7h-63.5V342L286 207.7v-2.8l-1.2-77.5 3.1-.4 29.9-4.2s8.8 32.8 18.4 90.5c2.2 13.4 4.3 28 6.1 42.4q.9 6.7 1.6 13.3c.8 6.1 1.4 12.1 2.1 17.9.7 6.6 1.4 12.9 2 18.9 1.7 16.8 2.9 37.1 3.6 44.9"/><path fill-rule="evenodd" class="s3 svg-elem-124" d="M300.2 350.6v.1h-12l-.6-135.9v-5.4l-.4-76 5.9 2.8 1.3 40.1 1.2 34.9.6 18.1 3.5 105.7z"/><path class="s11 svg-elem-125" d="M229.9 350.7h61.8l.2-8.4 1.8-122.4.2-14.2.5-31.9.6-39.8-7.1-7-22-21.7s-11.9 4.9-21.7 49.2c-9.7 44.6-13.4 171.3-14.3 196.2"/><path class="s1 svg-elem-126" d="m317.5 123 26.2 146-100.2 2.1s9.8-112.3 15.6-138.1c5.7-25.9 11.5-31.6 11.5-31.6z"/><path class="s4 svg-elem-127" d="M427.8 180.6s26.3 1.9 51.5 16.1c4.4 2.5 7.1 10 1.4 17.2s-37.3 13.9-39.2 14.4c-2 .4-232-1.2-232-1.2l.3-49.1z"/><path class="s3 svg-elem-128" d="M236 227.5c-16.2-.1-26.5-.2-26.5-.2h-.2v-.2l.2-49.4 31 .4v.5l-30.5-.4-.2 48.6c1.7 0 11.5.1 26.2.2z"/><path fill-rule="evenodd" class="s3 svg-elem-129" d="m284.1 204.7 1.9 3.5 1.6 2.9 6.1 11.2 2.5 4.6 33.2 60.9 5 9.2 13.6 25 24.3 44.7h9.8L346 300l-6.7-12.2-4.9-9.2-38.8-71.5-.6-1.1-1.1-.1-6.4-.8-1.5-.2z"/><path fill-rule="evenodd" class="s3 svg-elem-130" d="M286.6 366.7h9.8l3.8-7.1 34.2-62.6 4.9-9.2 4.6-8.5 40.7-74.6-10.9 1.3-31.4 57.9-7.9 14.7-5 9.2-29.7 54.7-7.8 14.4-3.7 6.9-.1.1z"/><path class="s3 svg-elem-131" d="M385 223.6c-55.5 0-174.1-1.2-175.5-1.2v-.5c1.6 0 158.9 1.5 195.8 1.1 32.1-.4 56-3.5 67.4-8.6 9.3-4.2 10.7-11.5 10.7-11.5h.5c0 .1-1.4 7.6-11 12-8.1 3.6-26.4 8.1-67.6 8.6-4.9.1-11.9.1-20.3.1"/><path fill-rule="evenodd" class="s12 svg-elem-132" d="m465.1 195.9 2 21.1-9.6-12.9z"/><path class="s13 svg-elem-133" d="m267.4 255.3 130.3 1.9 12.4.2 24.4.3 20.4-20.8c5.2-8.1 12.4-20.1 12.4-20.1l-8.1-13.4 6.2-7.7-4.3-8.1s-14.9-6.7-36.2-8.9c-8.2-.8-153.6-1.4-153.6-1.4l-3.1 43.3z"/><path fill-rule="evenodd" class="s12 svg-elem-134" d="m397.6 257.2 12.6.2 2.8-34.2z"/><path fill-rule="evenodd" class="s3 svg-elem-135" d="M269.8 199v-.5l185.8 3.4v.6z"/><path class="s3 svg-elem-136" d="M443.4 196.5c1.8 0 1.8 2.9 0 2.9-1.9 0-1.9-2.9 0-2.9"/><path class="s3 svg-elem-137" d="M417 195.5c1.8 0 1.8 2.9 0 2.9-1.9 0-1.9-2.9 0-2.9"/><path class="s3 svg-elem-138" d="M389.6 195.5c1.8 0 1.8 2.9 0 2.9-1.9 0-1.9-2.9 0-2.9"/><path class="s3 svg-elem-139" d="M358.5 195c1.9 0 1.9 2.9 0 2.9-1.8 0-1.8-2.9 0-2.9"/><path fill-rule="evenodd" class="s13 svg-elem-140" d="M467.1 217 434 367.2h-49.5l28.5-144z"/><path fill-rule="evenodd" class="s3 svg-elem-141" d="m461.6 223.9-23.1-16.3 16.5-5.5-13.9-12.1 16.8-2.9.1.5-15.7 2.8 13.8 11.9-16.5 5.5 22.3 15.7z"/><path class="s14 svg-elem-142" d="M328.8 114.2s6.1 30 12.4 36.3c6.2 6.2 58.8 26.3 58.8 26.3l11.5-13.4s-46.9-26.3-48.8-28.2c-1.9-2-7.7-17.3-7.7-17.3z"/><path class="s3 svg-elem-145" d="M325.4 48s-1-6.7-8.7-6.7c-5.9 0-8.1 6.7-12.4 4.3-4.3-2.3-3.8-7.6-12-6.2-5.2 1-6.7 6.7-10 4.8-3.4-1.9-6.7-3.3-12-.5-5.3 2.9-9.6 10.6-1.9 17.7 7.6 7.2 40.2 12.5 47.4 8.2s9.5-21.6 9.5-21.6z"/><path class="s1 svg-elem-146" d="m322.5 101.7 1.4 7.9 2.2 12.9 1.2 6.9 33.5-5.7s-8.6-29.7-12.9-36.4-10.7-10.2-10.7-10.2z"/><path fill-rule="evenodd" class="s15 svg-elem-147" d="m323.9 109.6 2.2 12.9 10.3-30.9z"/><path class="s1 svg-elem-148" d="m273.7 104.5 43.5 18.7c4.3-5.3 11.5-16.3 11.5-16.3L343.1 82s-2.4-2.9-7.2-5.7c-3.6-2.2-7.5-3-9.2-3.3-.6 0-.9-.1-.9-.1l-7.1 3.4-2.6 2.6L312 83v-5.7l-7.5-17.5L290.9 71l-3.5 13.6z"/><path fill-rule="evenodd" class="s3 svg-elem-149" d="M317.2 127.5h2.1l-1.1-5.6-47.9-20.2-2.4 5.2z"/><path fill-rule="evenodd" class="s15 svg-elem-150" d="m291.4 72.9-8.6 31.6-7.2-2.8z"/><path class="s15 svg-elem-153" d="m301.9 88.2 11-10-7.7-17.7-.5-1.3q-.6-.5-1.4-1.1l-.2 4.3z"/><path class="s15 svg-elem-154" d="M316.1 78.9c.1 4 .5 15.3.9 15.3s7.9-17.2 9.7-21.2c-.6-.1-.9-.1-.9-.1l-7.1 3.4z"/><path fill-rule="evenodd" class="s1 svg-elem-155" d="m322.5 64.3 3.3 8.6-8.1 17.7-.5-14.3z"/><path fill-rule="evenodd" class="s14 svg-elem-156" d="M323.5 50.3 312.9 60l-.9 17.2-1 7.2 6.2-6.7 3.4-8.6 4.8-6.2 2.2-11.6z"/><path class="s3 svg-elem-157" d="M323 50.2s-1.6-3.3 3.3-7c4.9-3.6 12-.9 13.9 2.4 1.3 2.4.8 5.1.8 5.1s-4.1 1.8-8.4 1.2-9.6-1.7-9.6-1.7"/><path class="s14 svg-elem-158" d="M341.1 50.4s-.9 3.5-1.9 5.7l-.7 5.5q-.1.5-.6.4l-1.9-1.5s-3.8 5.5-7.8 5.7c-4.5.2-7.7-6-6.5-8.7s3.4-6.3 3.4-6.3-.9-3.7 2.2-4.9 4.1 2.5 3.6 3.6c0 0 4.7 2.7 10.2.5"/><path class="s3 svg-elem-159" d="M325.8 52.4c-.9-1.1-1.1-2.6-1.1-2.6l.6-.1s.1 1.4.9 2.3z"/><path class="s3 svg-elem-160" d="m329.2 50.7-.5-.2c0-.1.7-1.5-.4-3.2l.5-.3c1.2 1.9.4 3.6.4 3.7"/><path class="s3 svg-elem-161" d="M339.6 54.6c-.8-.7-3.4-1.1-3.4-1.1l.1-.6c.1.1 2.7.6 3.6 1.3z"/><path class="s3 svg-elem-162" d="M338.8 56.8c-.6-.4-2.4-.8-3-.9l.1-.6c.1.1 2.4.5 3.2 1.1l-.4.4z"/><path class="s3 svg-elem-163" d="M336.9 56.2v-.1q.1 0 .1-.1.1 0 .1-.1 0 .1 0 0h.6q.1 0 .2.1l.1.1v.4q-.1.1-.1.2v.1q-.1.1-.2.1v.1h-.1v.1h-.4c-.2 0-.4-.2-.4-.4v-.3q.1-.1.1-.2"/><path class="s3 svg-elem-164" d="M334.4 62.1c-.1 0-1.8-1.2-1.9-4h.5c.2 2.5 1.6 3.5 1.7 3.6z"/><path class="s3 svg-elem-165" d="M323.9 64.7c-3.2-3.3-2.1-8-2-8.2l.5.1s-1.1 4.7 1.9 7.7z"/><path fill-rule="evenodd" class="s1 svg-elem-166" d="m304.5 59.3-1.4 26.8 8.9-8.4 1.9-20.1z"/><path class="s3 svg-elem-167" d="M312.3 87.1c1.4 0 1.4 2.2 0 2.2s-1.4-2.2 0-2.2"/><path class="s3 svg-elem-168" d="M308.8 94c1.4 0 1.4 2.1 0 2.1s-1.4-2.1 0-2.1"/><path fill-rule="evenodd" class="s3 svg-elem-169" d="m303.1 86.5 1.1-26.7h.6l-1.2 25.4 8.2-7.7.3.4-9.1 8.6z"/><path fill-rule="evenodd" class="s3 svg-elem-170" d="m317.2 92-.5-14 .6-.1.4 11.8 7.7-16.7.5.3z"/><path fill-rule="evenodd" class="s3 svg-elem-171" d="m303.8 96 7-11.7.4.2-6.9 11.8z"/><path class="s3 svg-elem-172" d="M320 106.9q-1.7 0-3-1.2c-3.4-3.5-1.1-9.6-1-9.9l.5.2c0 .1-2.3 6.1.9 9.3q1.3 1.3 3.3 1c3-.5 5.9-3.4 6.8-5.2l.5.2c-1 1.9-4.1 5-7.2 5.5q-.4.1-.8.1"/><path class="s3 svg-elem-173" d="M294.8 94.9c-1.2 0-2.4-.5-3.2-1.3-1-1.2-2.5-4.1-.3-10.5l.5.1c-2.1 6.2-.8 8.9.2 10 1 1 2.4 1.4 3.8 1 3.4-.8 6.8-5.1 6.9-5.1l.4.3c-.2.2-3.6 4.4-7.2 5.3q-.6.2-1.1.2"/><path fill-rule="evenodd" class="s3 svg-elem-174" d="m281.7 102.7-5.5-2 .2-.5 5 1.8 11.4-35.1.5.1z"/><path class="s3 svg-elem-175" d="m324.7 113.4-.4-.3c4.5-6.8 12.9-21.5 13-21.6l.5.2c-.1.2-8.5 14.9-13.1 21.7"/><g><animateTransform attributeName="transform" type="translate" values="-5 0; 5 0; -5 0" dur="3s" repeatCount="indefinite"/><path class="s14 svg-elem-151" d="M254.5 84.4s-12.4 30.2-12 40.7c.5 10.5 8.2 20.6 27.3 28.7 19.2 8.2 32.6 13.9 32.6 13.9l8.6-16.8s-32.5-22.9-43.1-28.7l10.6-27.3z"/></g><path class="s1 svg-elem-152" d="m245.9 87.3 35.4 15.3 10.1-29.7 11.7-10.5 2.1-1.9.5-.5s-.4-.3-1.1-.8q-.5-.5-1.4-1.1c-2.9-2.2-8-5.9-11.8-8.2q-8.6-5-17.3 0c-5.7 3.4-12.9 12-19.1 22.1-6.2 10-9.1 15.3-9.1 15.3"><animateTransform attributeName="transform" type="rotate" values="-1 300 90; 1 300 90; -1 300 90" dur="3s" repeatCount="indefinite" calcMode="spline" keySplines=".4 0 .6 1; .4 0 .6 1"/></path><g><animateTransform attributeName="transform" type="translate" values="-5 0; 5 0; -5 0" dur="3s" repeatCount="indefinite"/><path fill-rule="evenodd" class="s4 svg-elem-176" d="m335.1 174.5-4.8 18.4 4.1-1.1 4.7-18.4z"/><path class="s3 svg-elem-177" d="m298.1 191 .8-14.3s41.3.7 43.3.2c2.1-.6 4-4.7-.1-6.6-4.1-2-47.9-1.7-49-1.2-1 .6-8.2 21.1-8.2 21.1z"/><path class="s4 svg-elem-178" d="m278.6 209.2 74.5 1.1s-.3-.4-.7-1.1c-1.8-2.8-7.4-10.3-18-17.4l-49.5-1.6L279 208z"/><path fill-rule="evenodd" class="s4 svg-elem-179" d="m307.8 190.9 1.5-4.7 9.7.3.5 4.8z"/><path fill-rule="evenodd" class="s3 svg-elem-180" d="M280 205.2v-.5l70.9 2.1v.6z"/><path class="s3 svg-elem-181" d="m278.6 209.2 74.5 1.1s-.3-.4-.7-1.1L279 208z"/><path fill-rule="evenodd" class="s3 svg-elem-182" d="m307.8 191.1.1-.6 12.6.6v.5z"/><path class="s14 svg-elem-183" d="M309.3 149.9s12.3 6.6 15.2 13.4c2.1 4.6 4.2 15.5 1.6 17.6-2.6 2-3.9-1.9-3.9-1.9s-.2 2.9-2.8 2.9-3.2-3-3.2-3-.5 2.5-2.5 3c-2.1.5-3.1-3.1-3.1-3.1s0 3.1-2.1 3.1-2.6-2.6-3.1-4.7c-.5-2-4.2-15-4.2-15z"/><path class="s3 svg-elem-184" d="M321.8 179s-.4-4.4-.9-7.5l.6-.1c.4 3.1.8 7.5.8 7.5z"/><path fill-rule="evenodd" class="s3 svg-elem-185" d="m315.4 171.8.5-.1.5 7.1h-.6z"/><path fill-rule="evenodd" class="s3 svg-elem-186" d="m309.2 172.2.6-.1.9 7.8-.6.1z"/><path class="s3 svg-elem-192" d="M114.9 193.8c-3.4 0-8-2.3-13.3-5.1-9.2-4.8-20.7-10.8-32.3-7.4l-.2-.5c11.8-3.5 23.4 2.6 32.8 7.4 5.4 2.8 10 5.3 13.3 5.1 4.2-.2 7.9-2.3 11.9-4.6 4.5-2.5 9.7-5.4 16.3-5.9 6.7-.5 11.4 2.2 16 4.8 4 2.3 7.9 4.5 12.8 4.3 7.7-.4 11.5-2 17.9-4.8 2.4-1 5-2.1 8.3-3.4 8.3-3.1 14.7-.7 22.1 2.2 4 1.5 8.1 3.1 13 4 9.8 2 14.5 0 21-2.8 3-1.2 6.3-2.6 10.5-3.9 13.3-3.8 24.5 3.4 24.6 3.4l-.3.5c-.1-.1-11.1-7.1-24.2-3.3-4.2 1.2-7.5 2.6-10.4 3.8-6.3 2.7-11.4 4.9-21.3 2.9-5-1-9.1-2.6-13.1-4.1-7.3-2.9-13.6-5.3-21.7-2.2-3.3 1.3-5.9 2.4-8.3 3.4-6.4 2.8-10.3 4.4-18.1 4.8-5.1.2-9-2-13.1-4.4-4.5-2.5-9.1-5.2-15.6-4.7-6.6.5-11.5 3.2-16.2 5.9-4 2.3-7.8 4.4-12.1 4.6z"/></g><path class="s14 svg-elem-187" d="m396.7 175.4 11.9-12.3s20.2 1.3 24.2 2.8c3.9 1.5 14.8 15.6 12.3 17.4-2.4 1.9-5.7-3.6-5.7-3.6s.8 3.1-1.3 2.9c-2-.1-3.4-3.5-3.4-3.5s.9 2.1-1 2.5c-.8.1-1.9-.7-3-1.5-3 1.4-14.5-.6-20-.3-6 .2-14-4.4-14-4.4"/><path class="s3 svg-elem-188" d="m430.7 180.4-.1-.5s.7-.2.9-.8c.2-.4 0-1.1-.6-1.8-1.6-2.3-9.2-2.5-14.7-2.6h-1c-5.9-.2-8.1.3-8.1.3l-.1-.5c.1 0 2.2-.5 8.2-.4l1 .1c5.9.1 13.4.3 15.2 2.8q1 1.4.6 2.3c-.3.8-1.2 1.1-1.3 1.1"/><path class="s3 svg-elem-189" d="M439.4 179.7c-2.5-3.5-6.8-8.7-8-9-1.3-.3-8.3.8-11.8 1.4l-.1-.5c.4-.1 10.3-1.7 12-1.4 1.8.4 7.7 8.3 8.3 9.2z"/><path class="s3 svg-elem-190" d="M434.7 179.8c-.9-1.6-3.5-5.7-4.8-6-1.7-.4-8.1 1.1-8.1 1.1l-.2-.5c.3-.1 6.6-1.5 8.4-1.1 1.8.3 4.8 5.6 5.1 6.2l-.4.2z"/><path fill-rule="evenodd" class="s3 svg-elem-191" d="m272.8 109.4.2-.5 44.3 18.3-.2.5z"/><path fill-rule="evenodd" class="s3 svg-elem-193" d="m315.6 361.9-77.7-1.5.1-.6 77.6 1.6h41.5v.5z"/></svg>